<svg width="24" height="24" viewBox="0 0 32 32" fill="none" xmlns="http://www.w3.org/2000/svg">
<path d="M27.7075 16.7178L18.7075 25.7178C18.5199 25.9055 18.2654 26.0109 18 26.0109C17.7346 26.0109 17.4801 25.9055 17.2925 25.7178C17.1049 25.5302 16.9994 25.2757 16.9994 25.0103C16.9994 24.745 17.1049 24.4905 17.2925 24.3028L24.5863 17.0103H5C4.73478 17.0103 4.48043 16.905 4.29289 16.7174C4.10536 16.5299 4 16.2755 4 16.0103C4 15.7451 4.10536 15.4908 4.29289 15.3032C4.48043 15.1157 4.73478 15.0103 5 15.0103H24.5863L17.2925 7.71782C17.1049 7.53018 16.9994 7.27569 16.9994 7.01032C16.9994 6.74496 17.1049 6.49046 17.2925 6.30282C17.4801 6.11518 17.7346 6.00977 18 6.00977C18.2654 6.00977 18.5199 6.11518 18.7075 6.30282L27.7075 15.3028C27.8005 15.3957 27.8742 15.506 27.9246 15.6274C27.9749 15.7488 28.0008 15.8789 28.0008 16.0103C28.0008 16.1417 27.9749 16.2719 27.9246 16.3933C27.8742 16.5147 27.8005 16.6249 27.7075 16.7178Z" fill="#FCFCFC"/>
</svg>
