<svg width="20" height="18" viewBox="0 0 20 18" fill="none" xmlns="http://www.w3.org/2000/svg">
<path fill-rule="evenodd" clip-rule="evenodd" d="M16 0.566406H4C1.79086 0.566406 0 2.35727 0 4.56641V13.5664C0 15.7755 1.79086 17.5664 4 17.5664H16C18.2091 17.5664 20 15.7755 20 13.5664V4.56641C20 2.35727 18.2091 0.566406 16 0.566406ZM4 2.15641H16C17.0657 2.15844 18.0025 2.86303 18.3 3.88641L10.76 9.47641C10.5534 9.67845 10.2732 9.78736 9.98433 9.77792C9.69548 9.76848 9.42301 9.64151 9.23 9.42641L1.72 3.89641C2.01175 2.87613 2.9389 2.16857 4 2.15641ZM1.59 13.5664C1.59 14.8974 2.66899 15.9764 4 15.9764H16C17.3271 15.9709 18.4 14.8935 18.4 13.5664V5.53641L11.6 10.5364C11.1654 10.941 10.5938 11.1661 10 11.1664C9.38274 11.1566 8.79115 10.9178 8.34 10.4964L1.59 5.49641V13.5664Z" fill="#979797"/>
</svg>
