<svg width="32" height="33" viewBox="0 0 32 33" fill="none" xmlns="http://www.w3.org/2000/svg">
<path d="M16 3.07617C13.4288 3.07617 10.9154 3.83861 8.77759 5.26707C6.63975 6.69553 4.97351 8.72585 3.98957 11.1013C3.00563 13.4767 2.74819 16.0906 3.2498 18.6123C3.75141 21.1341 4.98953 23.4505 6.80762 25.2686C8.6257 27.0866 10.9421 28.3248 13.4638 28.8264C15.9856 29.328 18.5995 29.0705 20.9749 28.0866C23.3503 27.1027 25.3807 25.4364 26.8091 23.2986C28.2376 21.1607 29 18.6473 29 16.0762C28.9964 12.6295 27.6256 9.32499 25.1884 6.8878C22.7512 4.45062 19.4467 3.07981 16 3.07617ZM17 27.0299V19.0762H20C20.2652 19.0762 20.5196 18.9708 20.7071 18.7833C20.8946 18.5957 21 18.3414 21 18.0762C21 17.811 20.8946 17.5566 20.7071 17.3691C20.5196 17.1815 20.2652 17.0762 20 17.0762H17V14.0762C17 13.5457 17.2107 13.037 17.5858 12.662C17.9609 12.2869 18.4696 12.0762 19 12.0762H21C21.2652 12.0762 21.5196 11.9708 21.7071 11.7833C21.8946 11.5957 22 11.3414 22 11.0762C22 10.811 21.8946 10.5566 21.7071 10.3691C21.5196 10.1815 21.2652 10.0762 21 10.0762H19C17.9391 10.0762 16.9217 10.4976 16.1716 11.2477C15.4214 11.9979 15 13.0153 15 14.0762V17.0762H12C11.7348 17.0762 11.4804 17.1815 11.2929 17.3691C11.1054 17.5566 11 17.811 11 18.0762C11 18.3414 11.1054 18.5957 11.2929 18.7833C11.4804 18.9708 11.7348 19.0762 12 19.0762H15V27.0299C12.181 26.7726 9.56971 25.4384 7.7093 23.3049C5.8489 21.1714 4.8826 18.4027 5.0114 15.575C5.1402 12.7472 6.35419 10.0779 8.40085 8.1223C10.4475 6.16675 13.1693 5.07547 16 5.07547C18.8307 5.07547 21.5525 6.16675 23.5992 8.1223C25.6458 10.0779 26.8598 12.7472 26.9886 15.575C27.1174 18.4027 26.1511 21.1714 24.2907 23.3049C22.4303 25.4384 19.819 26.7726 17 27.0299Z" fill="currentColor"/>
</svg>
