<svg width="26" height="26" viewBox="0 0 32 33" fill="none" xmlns="http://www.w3.org/2000/svg">
<path d="M16 10.0762C14.8133 10.0762 13.6533 10.4281 12.6666 11.0874C11.6799 11.7466 10.9108 12.6837 10.4567 13.7801C10.0026 14.8764 9.88378 16.0828 10.1153 17.2467C10.3468 18.4106 10.9182 19.4797 11.7574 20.3188C12.5965 21.1579 13.6656 21.7294 14.8295 21.9609C15.9933 22.1924 17.1997 22.0736 18.2961 21.6194C19.3925 21.1653 20.3295 20.3963 20.9888 19.4096C21.6481 18.4229 22 17.2629 22 16.0762C21.9983 14.4854 21.3657 12.9602 20.2408 11.8354C19.116 10.7105 17.5908 10.0778 16 10.0762ZM16 20.0762C15.2089 20.0762 14.4355 19.8416 13.7777 19.4021C13.1199 18.9625 12.6072 18.3378 12.3045 17.6069C12.0017 16.876 11.9225 16.0717 12.0769 15.2958C12.2312 14.5199 12.6122 13.8072 13.1716 13.2477C13.731 12.6883 14.4437 12.3074 15.2196 12.153C15.9956 11.9987 16.7998 12.0779 17.5307 12.3807C18.2616 12.6834 18.8864 13.1961 19.3259 13.8539C19.7654 14.5117 20 15.285 20 16.0762C20 17.137 19.5786 18.1545 18.8284 18.9046C18.0783 19.6547 17.0609 20.0762 16 20.0762ZM22 3.07617H10C8.14409 3.07816 6.36477 3.81629 5.05245 5.12862C3.74012 6.44094 3.00199 8.22027 3 10.0762V22.0762C3.00199 23.9321 3.74012 25.7114 5.05245 27.0237C6.36477 28.3361 8.14409 29.0742 10 29.0762H22C23.8559 29.0742 25.6352 28.3361 26.9476 27.0237C28.2599 25.7114 28.998 23.9321 29 22.0762V10.0762C28.998 8.22027 28.2599 6.44094 26.9476 5.12862C25.6352 3.81629 23.8559 3.07816 22 3.07617ZM27 22.0762C27 23.4023 26.4732 24.674 25.5355 25.6117C24.5979 26.5494 23.3261 27.0762 22 27.0762H10C8.67392 27.0762 7.40215 26.5494 6.46447 25.6117C5.52678 24.674 5 23.4023 5 22.0762V10.0762C5 8.75009 5.52678 7.47832 6.46447 6.54064C7.40215 5.60296 8.67392 5.07617 10 5.07617H22C23.3261 5.07617 24.5979 5.60296 25.5355 6.54064C26.4732 7.47832 27 8.75009 27 10.0762V22.0762ZM24 9.57617C24 9.87284 23.912 10.1629 23.7472 10.4095C23.5824 10.6562 23.3481 10.8485 23.074 10.962C22.7999 11.0755 22.4983 11.1052 22.2074 11.0473C21.9164 10.9895 21.6491 10.8466 21.4393 10.6368C21.2296 10.4271 21.0867 10.1598 21.0288 9.86881C20.9709 9.57784 21.0007 9.27624 21.1142 9.00215C21.2277 8.72806 21.42 8.49379 21.6666 8.32897C21.9133 8.16414 22.2033 8.07617 22.5 8.07617C22.8978 8.07617 23.2794 8.23421 23.5607 8.51551C23.842 8.79682 24 9.17835 24 9.57617Z" fill="currentColor"/>
</svg>
