<svg width="32" height="33" viewBox="0 0 32 33" fill="none" xmlns="http://www.w3.org/2000/svg">
<path d="M27 3.07617H5C4.46957 3.07617 3.96086 3.28689 3.58579 3.66196C3.21071 4.03703 3 4.54574 3 5.07617V27.0762C3 27.6066 3.21071 28.1153 3.58579 28.4904C3.96086 28.8655 4.46957 29.0762 5 29.0762H27C27.5304 29.0762 28.0391 28.8655 28.4142 28.4904C28.7893 28.1153 29 27.6066 29 27.0762V5.07617C29 4.54574 28.7893 4.03703 28.4142 3.66196C28.0391 3.28689 27.5304 3.07617 27 3.07617ZM27 27.0762H5V5.07617H27V27.0762ZM12 14.0762V22.0762C12 22.3414 11.8946 22.5957 11.7071 22.7833C11.5196 22.9708 11.2652 23.0762 11 23.0762C10.7348 23.0762 10.4804 22.9708 10.2929 22.7833C10.1054 22.5957 10 22.3414 10 22.0762V14.0762C10 13.811 10.1054 13.5566 10.2929 13.3691C10.4804 13.1815 10.7348 13.0762 11 13.0762C11.2652 13.0762 11.5196 13.1815 11.7071 13.3691C11.8946 13.5566 12 13.811 12 14.0762ZM23 17.5762V22.0762C23 22.3414 22.8946 22.5957 22.7071 22.7833C22.5196 22.9708 22.2652 23.0762 22 23.0762C21.7348 23.0762 21.4804 22.9708 21.2929 22.7833C21.1054 22.5957 21 22.3414 21 22.0762V17.5762C21 16.9131 20.7366 16.2772 20.2678 15.8084C19.7989 15.3396 19.163 15.0762 18.5 15.0762C17.837 15.0762 17.2011 15.3396 16.7322 15.8084C16.2634 16.2772 16 16.9131 16 17.5762V22.0762C16 22.3414 15.8946 22.5957 15.7071 22.7833C15.5196 22.9708 15.2652 23.0762 15 23.0762C14.7348 23.0762 14.4804 22.9708 14.2929 22.7833C14.1054 22.5957 14 22.3414 14 22.0762V14.0762C14.0012 13.8312 14.0923 13.5953 14.256 13.413C14.4197 13.2308 14.6446 13.115 14.888 13.0875C15.1314 13.0601 15.3764 13.1229 15.5765 13.2642C15.7767 13.4054 15.918 13.6152 15.9738 13.8537C16.6502 13.3948 17.4389 13.1288 18.2552 13.0843C19.0714 13.0398 19.8844 13.2186 20.6067 13.6012C21.329 13.9839 21.9335 14.5562 22.3551 15.2565C22.7768 15.9568 22.9997 16.7587 23 17.5762ZM12.5 10.5762C12.5 10.8728 12.412 11.1629 12.2472 11.4095C12.0824 11.6562 11.8481 11.8485 11.574 11.962C11.2999 12.0755 10.9983 12.1052 10.7074 12.0473C10.4164 11.9895 10.1491 11.8466 9.93934 11.6368C9.72956 11.4271 9.5867 11.1598 9.52882 10.8688C9.47094 10.5778 9.50065 10.2762 9.61418 10.0021C9.72771 9.72806 9.91997 9.49379 10.1666 9.32897C10.4133 9.16414 10.7033 9.07617 11 9.07617C11.3978 9.07617 11.7794 9.23421 12.0607 9.51551C12.342 9.79682 12.5 10.1783 12.5 10.5762Z" fill="currentColor"/>
</svg>
