<svg width="20" height="21" viewBox="0 0 24 25" fill="none" xmlns="http://www.w3.org/2000/svg">
<path d="M19.5 8.06641H16.5V5.81641C16.5 4.62293 16.0259 3.47834 15.182 2.63443C14.3381 1.79051 13.1935 1.31641 12 1.31641C10.8065 1.31641 9.66193 1.79051 8.81802 2.63443C7.97411 3.47834 7.5 4.62293 7.5 5.81641V8.06641H4.5C4.10218 8.06641 3.72064 8.22444 3.43934 8.50575C3.15804 8.78705 3 9.16858 3 9.56641V20.0664C3 20.4642 3.15804 20.8458 3.43934 21.1271C3.72064 21.4084 4.10218 21.5664 4.5 21.5664H19.5C19.8978 21.5664 20.2794 21.4084 20.5607 21.1271C20.842 20.8458 21 20.4642 21 20.0664V9.56641C21 9.16858 20.842 8.78705 20.5607 8.50575C20.2794 8.22444 19.8978 8.06641 19.5 8.06641ZM9 5.81641C9 5.02076 9.31607 4.25769 9.87868 3.69509C10.4413 3.13248 11.2044 2.81641 12 2.81641C12.7956 2.81641 13.5587 3.13248 14.1213 3.69509C14.6839 4.25769 15 5.02076 15 5.81641V8.06641H9V5.81641ZM19.5 20.0664H4.5V9.56641H19.5V20.0664ZM13.125 14.8164C13.125 15.0389 13.059 15.2564 12.9354 15.4414C12.8118 15.6264 12.6361 15.7706 12.4305 15.8558C12.225 15.9409 11.9988 15.9632 11.7805 15.9198C11.5623 15.8764 11.3618 15.7692 11.2045 15.6119C11.0472 15.4546 10.94 15.2541 10.8966 15.0359C10.8532 14.8177 10.8755 14.5915 10.9606 14.3859C11.0458 14.1803 11.19 14.0046 11.375 13.881C11.56 13.7574 11.7775 13.6914 12 13.6914C12.2984 13.6914 12.5845 13.8099 12.7955 14.0209C13.0065 14.2319 13.125 14.518 13.125 14.8164Z" fill="#979797"/>
</svg>
