<svg width="14" height="18" viewBox="0 0 14 21" fill="none" xmlns="http://www.w3.org/2000/svg">
<path fill-rule="evenodd" clip-rule="evenodd" d="M11.1383 0.000237144H2.86167C1.57941 -0.0178761 0.52373 1.00391 0.5 2.28607V18.2977C0.52373 19.5799 1.57941 20.6017 2.86167 20.5836H11.1383C12.4206 20.6017 13.4763 19.5799 13.5 18.2977V2.28607C13.4763 1.00391 12.4206 -0.0178761 11.1383 0.000237144ZM5.64583 1.62524H8.35417V2.1669C8.35417 2.31648 8.23291 2.43774 8.08333 2.43774H5.91667C5.76709 2.43774 5.64583 2.31648 5.64583 2.1669V1.62524ZM11.1383 18.9586C11.5234 18.9771 11.8517 18.6825 11.875 18.2977V2.28607C11.8517 1.90129 11.5234 1.60674 11.1383 1.62524H9.97917V2.1669C9.97917 2.66971 9.77943 3.15192 9.42389 3.50746C9.06835 3.863 8.58614 4.06274 8.08333 4.06274H5.91667C4.86963 4.06274 4.02083 3.21394 4.02083 2.1669V1.62524H2.86167C2.47662 1.60674 2.14828 1.90129 2.125 2.28607V18.2977C2.14828 18.6825 2.47662 18.9771 2.86167 18.9586H11.1383Z" fill="black"/>
</svg>
