<svg width="18" height="18" viewBox="0 0 25 24" fill="none" xmlns="http://www.w3.org/2000/svg">
<path d="M22.1484 19.8736C20.7206 17.4052 18.5203 15.6352 15.9525 14.7961C17.2226 14.04 18.2094 12.8878 18.7614 11.5166C19.3134 10.1453 19.3999 8.63077 19.0078 7.20554C18.6157 5.78031 17.7666 4.5232 16.5909 3.62726C15.4151 2.73132 13.9778 2.24609 12.4996 2.24609C11.0215 2.24609 9.58414 2.73132 8.40842 3.62726C7.23269 4.5232 6.38358 5.78031 5.99146 7.20554C5.59935 8.63077 5.68592 10.1453 6.23788 11.5166C6.78984 12.8878 7.77668 14.04 9.04683 14.7961C6.47902 15.6343 4.27871 17.4043 2.85089 19.8736C2.79853 19.959 2.7638 20.054 2.74875 20.153C2.7337 20.2521 2.73863 20.3531 2.76326 20.4502C2.78789 20.5472 2.83171 20.6384 2.89214 20.7183C2.95257 20.7981 3.02838 20.8651 3.1151 20.9152C3.20183 20.9653 3.29771 20.9975 3.39709 21.0099C3.49647 21.0224 3.59733 21.0148 3.69373 20.9876C3.79012 20.9604 3.8801 20.9142 3.95835 20.8517C4.0366 20.7892 4.10154 20.7117 4.14933 20.6236C5.91558 17.5711 9.03746 15.7486 12.4996 15.7486C15.9618 15.7486 19.0837 17.5711 20.85 20.6236C20.8977 20.7117 20.9627 20.7892 21.0409 20.8517C21.1192 20.9142 21.2092 20.9604 21.3056 20.9876C21.402 21.0148 21.5028 21.0224 21.6022 21.0099C21.7016 20.9975 21.7975 20.9653 21.8842 20.9152C21.9709 20.8651 22.0467 20.7981 22.1072 20.7183C22.1676 20.6384 22.2114 20.5472 22.236 20.4502C22.2607 20.3531 22.2656 20.2521 22.2505 20.153C22.2355 20.054 22.2008 19.959 22.1484 19.8736ZM7.24964 8.99864C7.24964 7.96029 7.55755 6.94526 8.13443 6.0819C8.71131 5.21854 9.53124 4.54564 10.4906 4.14828C11.4499 3.75092 12.5055 3.64695 13.5239 3.84952C14.5423 4.05209 15.4777 4.55211 16.212 5.28633C16.9462 6.02056 17.4462 6.95602 17.6488 7.97442C17.8513 8.99282 17.7474 10.0484 17.35 11.0077C16.9527 11.967 16.2797 12.787 15.4164 13.3639C14.553 13.9407 13.538 14.2486 12.4996 14.2486C11.1077 14.2472 9.77322 13.6936 8.78898 12.7093C7.80473 11.7251 7.25113 10.3906 7.24964 8.99864Z" fill="#343330"/>
</svg>
