<svg width="41" height="41" viewBox="0 0 41 41" fill="none" xmlns="http://www.w3.org/2000/svg">
<path d="M19.1136 4.23487C19.5467 2.90191 21.4325 2.90191 21.8656 4.23487L24.7124 12.9963C24.9061 13.5924 25.4616 13.996 26.0884 13.996H35.3007C36.7023 13.996 37.285 15.7895 36.1511 16.6133L28.6982 22.0282C28.1911 22.3966 27.9789 23.0497 28.1726 23.6458L31.0194 32.4072C31.4525 33.7402 29.9269 34.8486 28.793 34.0248L21.34 28.6099C20.833 28.2415 20.1463 28.2415 19.6392 28.6099L12.1863 34.0248C11.0524 34.8486 9.52678 33.7402 9.95989 32.4072L12.8067 23.6458C13.0003 23.0497 12.7882 22.3966 12.2811 22.0282L4.82813 16.6133C3.69425 15.7895 4.27699 13.996 5.67854 13.996H14.8909C15.5177 13.996 16.0732 13.5924 16.2669 12.9963L19.1136 4.23487Z" fill="currentColor"/>
</svg>
