<svg width="32" height="33" viewBox="0 0 32 33" fill="none" xmlns="http://www.w3.org/2000/svg">
<path d="M30.9237 8.69418C30.8481 8.51144 30.72 8.35523 30.5555 8.24532C30.3911 8.13541 30.1978 8.07672 30 8.07668H26.1963C25.6644 7.1719 24.9076 6.42012 23.9992 5.89443C23.0909 5.36874 22.0619 5.08703 21.0125 5.07668C20.2306 5.06642 19.4546 5.21264 18.7301 5.50674C18.0056 5.80084 17.3472 6.23687 16.7937 6.78918C16.2241 7.34821 15.7719 8.01549 15.4639 8.75178C15.1559 9.48808 14.9981 10.2785 15 11.0767V11.8379C9.9675 10.5104 5.85125 6.41668 5.8075 6.37293C5.67334 6.23758 5.5033 6.14338 5.3174 6.10144C5.1315 6.05949 4.93748 6.07153 4.7582 6.13615C4.57891 6.20077 4.42183 6.31528 4.30544 6.46618C4.18905 6.61709 4.11821 6.79811 4.10125 6.98793C3.5625 12.9617 5.2975 16.9592 6.85125 19.2604C7.60885 20.398 8.53048 21.4174 9.58625 22.2854C7.6825 24.4767 4.685 25.6279 4.6525 25.6404C4.51139 25.6933 4.38405 25.7773 4.27999 25.8863C4.17594 25.9953 4.09785 26.1264 4.05158 26.2698C4.0053 26.4132 3.99203 26.5652 4.01275 26.7144C4.03347 26.8637 4.08765 27.0063 4.17125 27.1317C4.265 27.2717 4.64 27.7629 5.55625 28.2217C6.68875 28.7892 8.185 29.0767 10 29.0767C18.8337 29.0767 26.215 22.2742 26.9688 13.5217L30.7075 9.78418C30.8473 9.64425 30.9425 9.466 30.981 9.27198C31.0195 9.07796 30.9995 8.87688 30.9237 8.69418ZM25.2987 12.3704C25.1273 12.5423 25.0242 12.7707 25.0088 13.0129C24.5 20.8992 17.91 27.0767 10 27.0767C8.68 27.0767 7.75 26.9017 7.0975 26.6917C8.53625 25.9104 10.5425 24.5667 11.8325 22.6317C11.9082 22.5179 11.9598 22.3898 11.9841 22.2553C12.0083 22.1208 12.0048 21.9828 11.9736 21.8497C11.9425 21.7166 11.8844 21.5914 11.8029 21.4816C11.7214 21.3719 11.6184 21.28 11.5 21.2117C11.4412 21.1779 6.01125 17.9192 6 9.21168C8 10.8367 11.6562 13.3579 15.8337 14.0604C15.9769 14.0846 16.1236 14.0772 16.2637 14.039C16.4037 14.0007 16.5338 13.9323 16.6448 13.8387C16.7558 13.7451 16.845 13.6284 16.9064 13.4968C16.9677 13.3652 16.9997 13.2219 17 13.0767V11.0767C16.9989 10.5432 17.1045 10.015 17.3105 9.52294C17.5166 9.03092 17.819 8.58508 18.2 8.21168C18.5652 7.8458 19 7.55684 19.4788 7.3619C19.9576 7.16695 20.4706 7.06997 20.9875 7.07668C22.57 7.09668 24.0487 8.06168 24.6675 9.47793C24.7455 9.65598 24.8737 9.80745 25.0364 9.91379C25.1992 10.0201 25.3894 10.0767 25.5837 10.0767H27.5837L25.2987 12.3704Z" fill="currentColor"/>
</svg>
